#!OML:ASF \\sashay\E\Suitcase\Project 1\Capture day 1\Session 1\Male1.ASF
:FULLY-SPECIFIED
:DEGREES
169
root 1.02422 17.3941 -33.7139 6.03057 1.06276 -0.772719
lowerback 2.74908 -2.69876 0.717019
upperback -1.09039 -3.49589 3.20836
thorax -2.50328 -1.73124 3.06708
lowerneck -16.9905 -1.32332 -3.30513
upperneck 17.8601 -0.316723 -3.0502
head 8.3746 -0.701711 -0.520384
rclavicle 1.93815e-014 -5.56597e-015
rhumerus -38.3634 -18.0937 -64.1669
rradius 22.037
rwrist 3.90928
rhand -14.8175 18.318
rfingers 7.12502
rthumb 11.3407 -11.3554
lclavicle 1.93815e-014 -5.56597e-015
lhumerus -39.0575 5.31051 82.6362
lradius 37.6262
lwrist -5.07544
lhand -1.20123 41.8872
lfingers 7.12502
lthumb 24.4393 70.3483
rfemur -12.3233 0.781491 24.3902
rtibia 29.6361
rfoot -24.4572 -8.64753
rtoes 15.1383
lfemur -15.4612 -5.28262 -20.364
ltibia 31.0649
lfoot -23.1555 2.92349
ltoes -2.25365
170
root 1.00134 17.3899 -33.7328 6.00147 0.7934 -1.24119
lowerback 3.10992 -2.56049 0.936124
upperback -1.02774 -3.28875 3.42782
thorax -2.65101 -1.62879 3.17932
lowerneck -17.0493 -1.24655 -3.57832
upperneck 17.6478 -0.180458 -2.87226
head 8.31462 -0.633177 -0.398331
rclavicle -2.27608e-014 -7.95139e-016
rhumerus -38.3311 -18.1385 -64.1034
rradius 22.0245
rwrist 3.58007
rhand -14.7753 18.5056
rfingers 7.12502
rthumb 11.3814 -11.1655
lclavicle -2.27608e-014 -7.95139e-016
lhumerus -38.9064 5.303 82.8227
lradius 37.5557
lwrist -5.23862
lhand -1.64794 41.5547
lfingers 7.12502
lthumb 24.011 70.0729
rfemur -12.3926 1.50771 25.0331
rtibia 29.5837
rfoot -24.0026 -9.01255
rtoes 15.302
lfemur -15.7085 -4.84311 -19.7545
ltibia 31.3084
lfoot -23.1249 2.9501
ltoes -4.39729
171
root 0.988303 17.3867 -33.7283 6.03481 0.725836 -1.13402
lowerback 3.09689 -2.52411 0.735168
upperback -1.00792 -3.24903 3.46545
thorax -2.61175 -1.60593 3.32722
lowerneck -17.0054 -1.26422 -3.47337
upperneck 17.7129 -0.170499 -3.16891
head 8.32933 -0.653594 -0.514108
rclavicle -1.89839e-014 -2.3059e-014
rhumerus -38.4272 -18.0414 -64.0825
rradius 22.0069
rwrist 3.28376
rhand -14.8595 18.0986
rfingers 7.12502
rthumb 11.3003 -11.577
lclavicle -1.89839e-014 -2.3059e-014
lhumerus -38.9071 5.20182 82.9569
lradius 37.4778
lwrist -5.26566
lhand -1.81341 41.3745
lfingers 7.12502
lthumb 23.8523 69.9135
rfemur -12.4419 1.29212 24.9543
rtibia 29.612
rfoot -24.0357 -8.86976
rtoes 15.8118
lfemur -15.8099 -4.89537 -19.8136
ltibia 31.505
lfoot -23.001 3.05137
ltoes -3.15375
172
root 0.980596 17.3817 -33.7215 5.99632 0.716481 -1.25039
lowerback 3.09037 -2.55972 0.958662
upperback -0.929961 -3.28992 3.45341
thorax -2.53894 -1.63072 3.18852
lowerneck -16.8216 -1.1951 -3.57719
upperneck 17.3845 -0.133944 -2.85966
head 8.18535 -0.602271 -0.38535
rclavicle 6.4605e-015 -7.15625e-015
rhumerus -38.5368 -17.5432 -64.4544
rradius 22.1986
rwrist 2.59385
rhand -14.8145 17.7098
rfingers 7.12502
rthumb 11.3436 -11.9634
lclavicle 6.4605e-015 -7.15625e-015
lhumerus -38.9201 5.14508 82.8692
lradius 37.4753
lwrist -5.19551
lhand -1.3549 40.6731
lfingers 7.12502
lthumb 24.292 69.154
rfemur -12.4131 1.18566 25.1005
rtibia 29.6628
rfoot -23.9237 -8.75601
rtoes 15.7115
lfemur -15.809 -4.98827 -19.6766
ltibia 31.6489
lfoot -22.8648 3.07558
ltoes -3.04763
173
root 0.965225 17.371 -33.7231 5.96055 0.581532 -1.36884
lowerback 3.25565 -2.48463 1.0103
upperback -0.867413 -3.18227 3.54017
thorax -2.57042 -1.57715 3.25062
lowerneck -17.0823 -1.20985 -3.50124
upperneck 17.6597 -0.0688664 -3.2515
head 8.32566 -0.615617 -0.525224
rclavicle 6.7885e-014 -4.45278e-014
rhumerus -38.6251 -17.8191 -64.2794
rradius 22.145
rwrist 2.82838
rhand -14.722 17.7002
rfingers 7.12502
rthumb 11.4329 -11.9681
lclavicle 6.7885e-014 -4.45278e-014
lhumerus -38.6641 5.10386 83.0503
lradius 37.3546
lwrist -5.27194
lhand -0.883319 42.0495
lfingers 7.12502
lthumb 24.744 70.4691
rfemur -12.4074 1.24773 25.304
rtibia 29.7518
rfoot -23.8571 -8.81947
rtoes 15.7438
lfemur -15.8968 -5.03136 -19.5246
ltibia 31.7286
lfoot -22.7614 3.54117
ltoes -3.44602
174
root 0.956634 17.3689 -33.701 5.88363 0.581859 -1.10525
lowerback 3.17304 -2.52836 0.776481
upperback -0.814449 -3.25641 3.48288
thorax -2.45603 -1.61223 3.31948
lowerneck -16.6131 -1.1317 -3.06299
upperneck 17.1386 0.000226315 -3.83754
head 8.0674 -0.597896 -0.776953
rclavicle -2.19657e-014 -7.15625e-015
rhumerus -38.8235 -17.737 -64.2013
rradius 22.0233
rwrist 2.95554
rhand -14.5966 18.1707
rfingers 7.12502
rthumb 11.5538 -11.4908
lclavicle -2.19657e-014 -7.15625e-015
lhumerus -38.8826 5.19123 83.0365
lradius 37.4857
lwrist -5.41713
lhand -1.05093 42.1135
lfingers 7.12502
lthumb 24.5834 70.555
rfemur -12.212 0.815293 25.0216
rtibia 29.752
rfoot -23.6743 -8.62412
rtoes 16.2115
lfemur -15.7233 -4.9314 -19.817
ltibia 31.8277
lfoot -22.9122 3.33111
ltoes -3.53413
